<?xml version="1.0" encoding="UTF-8" standalone="no"?>
<!-- Created with Inkscape (http://www.inkscape.org/) -->

<svg
   width="48"
   height="48"
   viewBox="0 0 12.7 12.7"
   version="1.1"
   id="svg1"
   inkscape:version="1.4.2 (f4327f4, 2025-05-13)"
   sodipodi:docname="logo.svg"
   xml:space="preserve"
   xmlns:inkscape="http://www.inkscape.org/namespaces/inkscape"
   xmlns:sodipodi="http://sodipodi.sourceforge.net/DTD/sodipodi-0.dtd"
   xmlns="http://www.w3.org/2000/svg"
   xmlns:svg="http://www.w3.org/2000/svg"><sodipodi:namedview
     id="namedview1"
     pagecolor="#ffffff"
     bordercolor="#000000"
     borderopacity="0.25"
     inkscape:showpageshadow="2"
     inkscape:pageopacity="0.0"
     inkscape:pagecheckerboard="true"
     inkscape:deskcolor="#d1d1d1"
     inkscape:document-units="px"
     inkscape:zoom="8"
     inkscape:cx="0.3125"
     inkscape:cy="61.9375"
     inkscape:window-width="1440"
     inkscape:window-height="2507"
     inkscape:window-x="-8"
     inkscape:window-y="22"
     inkscape:window-maximized="1"
     inkscape:current-layer="svg1"
     showgrid="false" /><defs
     id="defs1" /><g
     id="g1"><path
       style="display:inline;fill:#98e598;fill-opacity:1"
       d="M 5.1841796,10.293096 C 3.9911239,10.232967 2.8463982,10.083628 2.058789,9.8853632 0.17768573,9.4118338 0.11164646,8.6995638 1.903652,8.2121251 c 0.206871,-0.05627 0.259154,-0.063087 0.2810956,-0.036649 0.014825,0.017863 0.1379579,0.1063765 0.2736279,0.1966957 0.6200191,0.4127634 1.4189125,0.6869295 2.2793197,0.7822221 0.3283521,0.036366 1.1381955,0.037558 1.407666,0.00207 0.1465239,-0.019296 0.2627535,-0.019376 0.4092774,-2.849e-4 0.2713329,0.035354 1.0814192,0.034318 1.407666,-0.0018 C 8.9073754,9.0497569 9.7929542,8.723133 10.419397,8.2481437 l 0.137854,-0.1045256 0.283826,0.080745 c 1.120005,0.3186294 1.518794,0.7243476 1.090487,1.1094329 -0.504234,0.4533496 -1.974643,0.797071 -4.0064665,0.936548 -0.5128852,0.03521 -2.2136623,0.04933 -2.7409179,0.02275 z"
       id="path7" /><path
       style="fill:#f4aec1"
       d="M 6.2058467,8.9358885 C 5.7849064,8.3677153 5.392346,7.5516039 5.2104897,6.8665957 5.0882887,6.4062947 5.0530641,6.1358126 5.052766,5.6554687 5.0524032,5.0709134 5.1332428,4.6270115 5.3576778,3.9811523 5.5251649,3.4991729 6.0285494,2.5715308 6.2864351,2.2696289 l 0.063565,-0.074414 0.063565,0.074414 c 0.25539,0.2989803 0.764466,1.2369046 0.9289614,1.7115234 0.2266225,0.6538744 0.3044383,1.0818372 0.3044383,1.6743164 0,0.8089145 -0.1737822,1.4980615 -0.5879698,2.3316406 -0.2355551,0.4740695 -0.6425297,1.1162109 -0.7074292,1.1162109 -0.011921,0 -0.077494,-0.075344 -0.1457191,-0.1674317 z"
       id="path6"
       sodipodi:nodetypes="csssscsssssc" /><path
       style="fill:#ee7897"
       d="m 6.3996093,9.0899117 c 0,-0.00669 0.054586,-0.087329 0.1213022,-0.1792077 C 6.9884582,8.2668201 7.4106654,7.3238268 7.5619122,6.5856444 7.6759186,6.029219 7.6886791,5.4670782 7.59946,4.93154 7.577356,4.7988601 7.5654536,4.6741918 7.5730103,4.6544992 7.5935926,4.6008628 8.1160574,4.1367759 8.3777999,3.9396333 8.6943442,3.7012145 9.0796838,3.4687191 9.4709907,3.2800547 9.6527457,3.1924235 9.8053281,3.124599 9.8100628,3.1293337 c 0.020681,0.020681 0.062033,0.6050454 0.062033,0.8766233 0,1.2719449 -0.3399733,2.3861779 -0.9874048,3.2361342 -0.5238107,0.6876653 -1.4041571,1.3682317 -2.2928456,1.7725225 -0.10573,0.0481 -0.1922363,0.081984 -0.1922363,0.075298 z M 6.0399413,8.982148 C 5.3819562,8.6719183 4.6682485,8.1692385 4.2167968,7.6980675 3.9504404,7.4200767 3.7951171,7.2416333 3.7951171,7.21362 c 0,-0.012 -0.016743,-0.028243 -0.037207,-0.036095 -0.020464,-0.00785 -0.037207,-0.025025 -0.037207,-0.038161 0,-0.029245 -0.1477624,-0.2490377 -0.1843981,-0.2742871 C 3.521762,6.855054 3.5184921,6.8466824 3.5290386,6.8464735 3.5467264,6.8461231 3.4802264,6.7255796 3.4467253,6.6972655 3.4177549,6.6727806 3.1802564,6.1103031 3.1168118,5.9159179 2.9403346,5.3752163 2.8572758,4.8689195 2.836034,4.2043945 2.8231373,3.8009383 2.8538015,3.1654693 2.8878076,3.1314631 c 0.017734,-0.017734 0.5974891,0.2707532 0.8766287,0.436213 0.370768,0.2197724 0.7101904,0.4742934 1.0786789,0.8088636 0.2047745,0.1859257 0.2913191,0.2808258 0.290998,0.3190927 -2.514e-4,0.029956 -0.01685,0.1471503 -0.036885,0.260432 -0.086203,0.4873975 -0.071288,1.0822263 0.04086,1.62958 0.1512866,0.7383763 0.5734456,1.6811659 1.041277,2.3254395 0.066868,0.092087 0.1075015,0.1667999 0.090296,0.1660279 C 6.2524558,9.0763398 6.1490819,9.033606 6.0399413,8.982148 Z"
       id="path4"
       inkscape:label="path4" /><path
       style="fill:#b35a72"
       d="M 4.8617187,9.1522663 C 3.7544856,9.0475575 2.8400999,8.6951112 2.0963011,8.0863471 2.0006353,8.0080492 1.7995801,7.8169351 1.6495117,7.6616492 1.1588264,7.1539038 0.77938541,6.5915869 0.45478678,5.8911132 L 0.35133663,5.667871 0.45472105,5.6503833 C 0.6811812,5.612077 1.4783415,5.599358 1.7859375,5.6291433 2.3002006,5.6789406 3.00198,5.8203164 3.0663723,5.8870912 3.0816613,5.9029459 3.1249675,5.9996337 3.1626084,6.101953 3.2674157,6.386851 3.5299046,6.881735 3.7151826,7.1437499 3.9115704,7.421476 4.4899859,8.01278 4.775886,8.2280883 5.1954415,8.5440511 5.6578237,8.8232585 6.0824748,9.0170659 l 0.2161662,0.098657 -0.092143,0.018266 c -0.1496199,0.029661 -1.089348,0.042433 -1.3447795,0.018277 z m 1.9223632,0.011159 C 6.7431542,9.1576389 6.63991,9.1464411 6.5546504,9.1385416 L 6.399633,9.1241788 6.790295,8.9297392 C 8.1545735,8.2507129 9.1343828,7.2344536 9.5420414,6.0756245 l 0.069775,-0.1983453 0.1227033,-0.036604 c 0.1784972,-0.053248 0.6593644,-0.1509424 0.9314954,-0.189246 0.263032,-0.037023 1.370509,-0.040427 1.570657,-0.00483 L 12.356254,5.667871 12.1449,6.0895507 C 11.821573,6.7346311 11.500908,7.1952203 11.050488,7.6615177 10.733639,7.9895355 10.52278,8.1673028 10.194726,8.382979 9.4232358,8.8901886 8.5083353,9.1430184 7.3669921,9.1644142 7.0873192,9.1696569 6.8250097,9.169212 6.7840819,9.1634254 Z"
       id="path1" /></g></svg>
